<?xml version="1.0" standalone="no"?>
<!DOCTYPE svg PUBLIC "-//W3C//DTD SVG 20010904//EN"
 "http://www.w3.org/TR/2001/REC-SVG-20010904/DTD/svg10.dtd">
<svg version="1.0" xmlns="http://www.w3.org/2000/svg"
 width="1024.000000pt" height="1024.000000pt" viewBox="0 0 1024.000000 1024.000000"
 preserveAspectRatio="xMidYMid meet">

<g transform="translate(0.000000,1024.000000) scale(0.100000,-0.100000)"
fill="#a4a6c5" stroke="none">
<path d="M7370 7620 c-24 -8 -24 -8 5 -8 17 0 39 3 50 8 18 8 18 9 -5 8 -14 0
-36 -4 -50 -8z"/>
<path d="M7412 7570 c6 -18 78 -27 78 -10 0 8 -9 10 -26 6 -16 -4 -32 -2 -42
6 -13 11 -14 11 -10 -2z"/>
<path d="M5092 6599 c-63 -12 -179 -78 -218 -123 -74 -86 -95 -177 -76 -326
25 -198 121 -389 196 -390 18 0 19 -7 12 -126 -6 -115 -9 -131 -41 -199 -44
-92 -97 -140 -221 -200 -51 -25 -96 -45 -100 -45 -4 0 -44 -18 -90 -40 -94
-46 -111 -66 -143 -175 -15 -52 -23 -122 -31 -275 -27 -545 -54 -716 -141
-927 -38 -91 -83 -146 -201 -250 -112 -98 -159 -134 -258 -198 -190 -122 -294
-195 -384 -272 -54 -47 -117 -87 -199 -128 -145 -72 -162 -91 -162 -178 1 -72
28 -139 83 -199 32 -35 123 -93 240 -152 116 -58 446 -103 682 -92 69 3 419 9
778 12 l652 6 45 -36 c83 -68 145 -89 278 -94 151 -5 226 16 291 83 47 49 104
70 226 85 41 5 130 21 197 34 311 65 478 129 762 294 227 131 309 251 257 375
-28 68 -128 138 -238 167 -24 7 -93 38 -154 71 -142 75 -174 87 -314 110 -127
21 -88 1 -395 206 -105 70 -239 186 -266 229 -25 41 -39 139 -99 681 -5 50
-10 140 -10 200 0 171 -17 321 -41 360 -42 67 -94 97 -274 158 -203 67 -284
105 -312 144 -40 54 -63 146 -63 254 l0 100 68 71 c72 76 102 123 142 221 21
51 25 76 25 165 0 93 -3 112 -27 162 -83 177 -281 276 -476 237z m454 -295
c12 -66 -91 -262 -162 -309 -13 -8 -24 -13 -24 -11 0 3 16 31 35 63 19 32 35
64 35 71 0 7 18 43 40 79 42 71 56 117 45 155 -6 22 -5 22 9 4 9 -11 19 -34
22 -52z m-854 -1904 c6 -19 30 -75 53 -125 24 -49 48 -117 55 -150 6 -33 16
-79 21 -103 18 -81 30 -401 20 -522 -16 -186 -59 -283 -210 -473 -56 -70 -101
-131 -101 -137 0 -5 12 -12 28 -15 80 -17 75 -20 -40 -22 -93 -2 -145 2 -213
17 -176 39 -336 70 -520 101 -67 12 -158 3 -134 -12 8 -5 25 -9 39 -9 25 0
281 -60 348 -81 18 -6 30 -15 26 -20 -9 -15 -67 -2 -389 86 -49 13 -103 27
-120 30 -27 6 -17 13 117 80 81 40 161 83 177 94 16 12 32 21 36 21 17 0 531
352 547 374 61 84 119 237 164 426 14 58 37 141 51 185 21 68 25 100 26 210 0
72 2 119 4 105 2 -14 9 -41 15 -60z m1068 17 c0 -48 27 -207 56 -326 64 -262
115 -402 180 -488 34 -45 183 -146 299 -203 170 -83 710 -248 870 -265 68 -8
134 -35 152 -64 11 -18 3 -19 -290 -24 -407 -8 -459 -17 -917 -171 -185 -62
-370 -127 -415 -145 -16 -7 -45 -15 -63 -18 -18 -3 -35 -10 -38 -14 -3 -5 -19
-9 -35 -9 -18 0 -28 -4 -24 -10 3 -5 -3 -10 -13 -10 -11 0 -44 -11 -73 -24
-101 -45 -204 -52 -454 -28 -252 25 -343 37 -353 47 -9 9 91 2 268 -20 196
-25 323 -17 463 29 60 20 146 54 193 76 46 22 90 40 97 40 7 0 21 6 32 13 11
8 47 24 80 36 33 13 92 36 132 52 150 61 329 119 465 152 49 12 89 27 89 32 0
8 -78 36 -251 90 -78 24 -223 96 -305 150 -98 66 -149 118 -189 194 -84 162
-92 348 -32 676 42 223 55 277 67 269 5 -3 9 -20 9 -37z m-117 -1548 c-6 -6
-73 -23 -149 -39 -77 -16 -182 -40 -234 -55 -93 -26 -102 -26 -480 -31 -230
-3 -403 -1 -430 5 -82 18 -117 28 -150 45 -18 9 -40 16 -49 16 -14 0 -14 2 -1
10 10 6 22 4 39 -6 13 -9 20 -11 17 -5 -9 14 -4 14 31 0 15 -6 37 -13 48 -15
39 -9 451 -25 510 -20 33 3 148 12 255 21 107 8 258 26 335 40 77 13 167 29
200 33 33 5 62 10 65 11 2 0 -1 -4 -7 -10z m-1516 -45 c-3 -3 -12 -4 -19 -1
-8 3 -5 6 6 6 11 1 17 -2 13 -5z"/>
<path d="M9677 1266 c-7 -19 211 -236 230 -229 29 11 9 42 -90 141 -99 99
-129 117 -140 88z"/>
<path d="M9605 1200 c-19 -21 -18 -21 98 -138 l117 -117 20 20 20 20 -118 118
-118 118 -19 -21z"/>
<path d="M9542 1010 c-94 -52 -195 -156 -238 -245 -61 -128 0 -169 136 -92
145 81 292 301 238 355 -21 21 -80 13 -136 -18z"/>
<path d="M9125 720 c-19 -21 -18 -21 98 -138 l117 -117 20 20 20 20 -118 118
-118 118 -19 -21z"/>
<path d="M9055 650 c-4 -7 -9 -33 -10 -59 -1 -32 -14 -72 -44 -130 l-42 -85
28 -28 29 -28 49 24 c105 50 156 68 176 63 26 -7 49 1 49 17 0 6 -51 62 -114
125 -78 77 -116 109 -121 101z"/>
</g>
</svg>
